<?xml version="1.0" encoding="UTF-8"?>
<svg width="467px" height="82px" viewBox="0 0 467 82" version="1.1" xmlns="http://www.w3.org/2000/svg" xmlns:xlink="http://www.w3.org/1999/xlink">
    <!-- Generator: Sketch 49.1 (51147) - http://www.bohemiancoding.com/sketch -->
    <title>Group</title>
    <desc>Created with Sketch.</desc>
    <defs></defs>
    <g id="Page-1" stroke="none" stroke-width="1" fill="none" fill-rule="evenodd">
        <g id="Desktop" transform="translate(-43.000000, -899.000000)">
            <g id="Group" transform="translate(42.000000, 899.000000)">
                <g id="Bolton-Critical-Care"></g>
                <path d="M1,24.5988701 L14.1774744,24.5988701 C16.0921597,24.5988701 17.8941895,24.7401116 19.5836177,25.0225989 C21.273046,25.3050862 22.7371952,25.7853073 23.9761092,26.4632768 C25.2150233,27.1412463 26.2005083,28.0734404 26.9325939,29.259887 C27.6646794,30.4463336 28.0307167,31.9434938 28.0307167,33.7514124 C28.0307167,34.5423768 27.9180899,35.3427455 27.6928328,36.1525424 C27.4675757,36.9623393 27.1015384,37.7344596 26.5947099,38.4689266 C26.0878814,39.2033935 25.4496626,39.8531045 24.6800341,40.4180791 C23.9104057,40.9830537 23.0000053,41.3973621 21.9488055,41.6610169 L21.9488055,41.8870056 C24.5392621,42.4143153 26.4820754,43.3653415 27.7773038,44.740113 C29.0725321,46.1148845 29.7201365,48.0263531 29.7201365,50.4745763 C29.7201365,52.3578249 29.3353281,53.9868105 28.5656997,55.3615819 C27.7960712,56.7363534 26.7636584,57.8662856 25.46843,58.7514124 C24.1732017,59.6365393 22.6433535,60.2862503 20.8788396,60.700565 C19.1143256,61.1148797 17.2559825,61.3220339 15.3037543,61.3220339 L1,61.3220339 L1,24.5988701 Z M13.9522184,39.0621469 C15.5290181,39.0621469 16.692829,38.704335 17.443686,37.9887006 C18.194543,37.2730661 18.5699659,36.3502881 18.5699659,35.220339 C18.5699659,34.0903898 18.194543,33.2806051 17.443686,32.7909605 C16.692829,32.3013158 15.5290181,32.0564972 13.9522184,32.0564972 L10.6860068,32.0564972 L10.6860068,39.0621469 L13.9522184,39.0621469 Z M14.6279863,53.8644068 C18.3822713,53.8644068 20.2593857,52.4708237 20.2593857,49.6836158 C20.2593857,48.3276768 19.7994927,47.3484023 18.8796928,46.7457627 C17.959893,46.1431232 16.5426717,45.8418079 14.6279863,45.8418079 L10.6860068,45.8418079 L10.6860068,53.8644068 L14.6279863,53.8644068 Z M33.2116041,47.1977401 C33.2116041,44.8625119 33.5964125,42.7721373 34.366041,40.9265537 C35.1356694,39.0809701 36.1680823,37.5273133 37.4633106,36.2655367 C38.7585389,35.0037602 40.2508448,34.0433178 41.940273,33.3841808 C43.6297013,32.7250438 45.3754176,32.3954802 47.1774744,32.3954802 C48.9795312,32.3954802 50.715862,32.7250438 52.3865188,33.3841808 C54.0571756,34.0433178 55.5400959,35.0037602 56.8353242,36.2655367 C58.1305526,37.5273133 59.172351,39.0809701 59.9607509,40.9265537 C60.7491507,42.7721373 61.1433447,44.8625119 61.1433447,47.1977401 C61.1433447,49.5329684 60.7491507,51.6233429 59.9607509,53.4689266 C59.172351,55.3145102 58.1305526,56.8681669 56.8353242,58.1299435 C55.5400959,59.3917201 54.0571756,60.3521624 52.3865188,61.0112994 C50.715862,61.6704364 48.9795312,62 47.1774744,62 C45.3754176,62 43.6297013,61.6704364 41.940273,61.0112994 C40.2508448,60.3521624 38.7585389,59.3917201 37.4633106,58.1299435 C36.1680823,56.8681669 35.1356694,55.3145102 34.366041,53.4689266 C33.5964125,51.6233429 33.2116041,49.5329684 33.2116041,47.1977401 L33.2116041,47.1977401 Z M43.1228669,47.1977401 C43.1228669,49.3446435 43.4325908,51.0489579 44.0520478,52.3107345 C44.6715048,53.572511 45.7133033,54.2033898 47.1774744,54.2033898 C48.6416455,54.2033898 49.683444,53.572511 50.302901,52.3107345 C50.922358,51.0489579 51.2320819,49.3446435 51.2320819,47.1977401 C51.2320819,45.0508367 50.922358,43.3465223 50.302901,42.0847458 C49.683444,40.8229692 48.6416455,40.1920904 47.1774744,40.1920904 C45.7133033,40.1920904 44.6715048,40.8229692 44.0520478,42.0847458 C43.4325908,43.3465223 43.1228669,45.0508367 43.1228669,47.1977401 L43.1228669,47.1977401 Z M66.2116041,22 L75.8976109,22 L75.8976109,51.7175141 C75.8976109,52.6968034 76.0759368,53.3559305 76.4325939,53.6949153 C76.7892509,54.0339 77.1365171,54.2033898 77.4744027,54.2033898 L77.9530717,54.2033898 C78.0844716,54.2033898 78.2627975,54.1657254 78.4880546,54.0903955 L79.6143345,61.2090395 C79.0887346,61.4350294 78.4411301,61.6233514 77.6715017,61.7740113 C76.9018733,61.9246712 75.9727017,62 74.883959,62 C73.2320737,62 71.8523946,61.7457653 70.7448805,61.2372881 C69.6373665,60.728811 68.7457372,60.0037712 68.0699659,59.0621469 C67.3941946,58.1205226 66.9155304,57.0000065 66.633959,55.700565 C66.3523877,54.4011234 66.2116041,52.9604599 66.2116041,51.3785311 L66.2116041,22 Z M84.2320819,40.6440678 L80.5153584,40.6440678 L80.5153584,33.4124294 L84.7952218,33.0734463 L85.9215017,25.7288136 L93.9180887,25.7288136 L93.9180887,33.0734463 L100.337884,33.0734463 L100.337884,40.6440678 L93.9180887,40.6440678 L93.9180887,50.3050847 C93.9180887,51.8870136 94.2559693,52.9698653 94.9317406,53.5536723 C95.6075119,54.1374794 96.3958999,54.4293785 97.2969283,54.4293785 C97.7474425,54.4293785 98.1885644,54.382298 98.6203072,54.2881356 C99.0520499,54.1939732 99.4368584,54.090396 99.774744,53.9774011 L101.238908,60.9830508 C100.488051,61.2090407 99.587036,61.4350271 98.5358362,61.6610169 C97.4846364,61.8870068 96.1706563,62 94.5938567,62 C92.754257,62 91.1868665,61.7269331 89.8916382,61.180791 C88.5964099,60.6346489 87.5264547,59.8531124 86.6817406,58.8361582 C85.8370265,57.819204 85.2175788,56.6045268 84.8233788,55.1920904 C84.4291789,53.779654 84.2320819,52.207165 84.2320819,50.4745763 L84.2320819,40.6440678 Z M103.491468,47.1977401 C103.491468,44.8625119 103.876276,42.7721373 104.645904,40.9265537 C105.415533,39.0809701 106.447946,37.5273133 107.743174,36.2655367 C109.038402,35.0037602 110.530708,34.0433178 112.220137,33.3841808 C113.909565,32.7250438 115.655281,32.3954802 117.457338,32.3954802 C119.259395,32.3954802 120.995725,32.7250438 122.666382,33.3841808 C124.337039,34.0433178 125.819959,35.0037602 127.115188,36.2655367 C128.410416,37.5273133 129.452214,39.0809701 130.240614,40.9265537 C131.029014,42.7721373 131.423208,44.8625119 131.423208,47.1977401 C131.423208,49.5329684 131.029014,51.6233429 130.240614,53.4689266 C129.452214,55.3145102 128.410416,56.8681669 127.115188,58.1299435 C125.819959,59.3917201 124.337039,60.3521624 122.666382,61.0112994 C120.995725,61.6704364 119.259395,62 117.457338,62 C115.655281,62 113.909565,61.6704364 112.220137,61.0112994 C110.530708,60.3521624 109.038402,59.3917201 107.743174,58.1299435 C106.447946,56.8681669 105.415533,55.3145102 104.645904,53.4689266 C103.876276,51.6233429 103.491468,49.5329684 103.491468,47.1977401 L103.491468,47.1977401 Z M113.40273,47.1977401 C113.40273,49.3446435 113.712454,51.0489579 114.331911,52.3107345 C114.951368,53.572511 115.993167,54.2033898 117.457338,54.2033898 C118.921509,54.2033898 119.963307,53.572511 120.582765,52.3107345 C121.202222,51.0489579 121.511945,49.3446435 121.511945,47.1977401 C121.511945,45.0508367 121.202222,43.3465223 120.582765,42.0847458 C119.963307,40.8229692 118.921509,40.1920904 117.457338,40.1920904 C115.993167,40.1920904 114.951368,40.8229692 114.331911,42.0847458 C113.712454,43.3465223 113.40273,45.0508367 113.40273,47.1977401 L113.40273,47.1977401 Z M136.491468,33.0734463 L144.375427,33.0734463 L145.051195,36.4632768 L145.276451,36.4632768 C146.402736,35.3709927 147.688559,34.4199664 149.133959,33.6101695 C150.579359,32.8003726 152.259376,32.3954802 154.174061,32.3954802 C157.252575,32.3954802 159.486341,33.4406675 160.875427,35.5310734 C162.264512,37.6214794 162.959044,40.4180616 162.959044,43.920904 L162.959044,61.3220339 L153.273038,61.3220339 L153.273038,45.1638418 C153.273038,43.3559232 153.047784,42.1506621 152.59727,41.5480226 C152.146755,40.9453831 151.433452,40.6440678 150.457338,40.6440678 C149.556309,40.6440678 148.805464,40.8323898 148.204778,41.2090395 C147.604093,41.5856893 146.928331,42.112991 146.177474,42.7909605 L146.177474,61.3220339 L136.491468,61.3220339 L136.491468,33.0734463 Z" id="Bolton" fill="#FFFFFF"></path>
                <rect id="Rectangle-2" fill="#DBAE22" x="178" y="0" width="8" height="82"></rect>
                <path d="M225.327446,45.8426813 L223.032412,39.1121751 C222.303826,36.9598616 221.61168,34.8987787 220.955953,32.9288646 C220.300225,30.9589505 219.662722,28.8613882 219.043424,26.6361149 L218.824849,26.6361149 C218.205551,28.8613882 217.568048,30.9589505 216.912321,32.9288646 C216.256593,34.8987787 215.564447,36.9598616 214.835861,39.1121751 L212.540827,45.8426813 L225.327446,45.8426813 Z M226.037814,47.9767442 L211.775815,47.9767442 L207.513609,60.3433653 L205,60.3433653 L217.677332,24.2831737 L220.190941,24.2831737 L232.868273,60.3433653 L230.245377,60.3433653 L226.037814,47.9767442 Z M238.332641,34.0779754 L240.4091,34.0779754 L240.627675,38.127223 L240.791606,38.127223 C242.13949,36.777467 243.523783,35.6557272 244.944525,34.7619699 C246.365268,33.8682126 247.986347,33.4213406 249.807812,33.4213406 C252.54001,33.4213406 254.543591,34.2421259 255.818616,35.8837209 C257.093642,37.525316 257.731145,40.0606304 257.731145,43.4897401 L257.731145,60.3433653 L255.326823,60.3433653 L255.326823,43.8180575 C255.326823,41.0091059 254.862357,38.9389031 253.93341,37.6073871 C253.004462,36.2758711 251.465348,35.6101231 249.316019,35.6101231 C247.749559,35.6101231 246.328838,36.0205157 245.053813,36.8413133 C243.778787,37.6621108 242.339851,38.8932886 240.736962,40.5348837 L240.736962,60.3433653 L238.332641,60.3433653 L238.332641,34.0779754 Z M265.927696,53.7770178 C265.927696,50.8951064 267.293774,48.6881062 270.025971,47.1559508 C272.758169,45.6237953 277.038547,44.529415 282.867235,43.872777 C282.903664,42.88782 282.839914,41.8937579 282.675982,40.8905609 C282.51205,39.8873639 282.202405,38.99362 281.747039,38.2093023 C281.291673,37.4249847 280.65417,36.7865962 279.834511,36.2941176 C279.014852,35.8016391 277.967525,35.5554036 276.692499,35.5554036 C274.907464,35.5554036 273.286384,35.9019573 271.829213,36.5950752 C270.372041,37.2881932 269.206321,37.963061 268.332017,38.619699 L267.239144,36.8139535 C267.712725,36.4856345 268.286478,36.120841 268.96042,35.7195622 C269.634362,35.3182834 270.381151,34.95349 271.20081,34.625171 C272.02047,34.296852 272.922081,34.0141371 273.905672,33.7770178 C274.889263,33.5398985 275.909268,33.4213406 276.965718,33.4213406 C278.532178,33.4213406 279.843613,33.6858159 280.900062,34.2147743 C281.956512,34.7437327 282.812588,35.4641997 283.468315,36.376197 C284.124042,37.2881943 284.588509,38.355215 284.861729,39.5772914 C285.134948,40.7993677 285.271556,42.1217439 285.271556,43.5444596 L285.271556,60.3433653 L283.24974,60.3433653 L282.976522,56.9507524 L282.867235,56.9507524 C281.519351,58.0086692 280.071308,58.9480123 278.523063,59.7688098 C276.974817,60.5896074 275.326416,61 273.57781,61 C272.52136,61 271.537784,60.8540826 270.627052,60.5622435 C269.716319,60.2704044 268.90578,59.8326523 268.195408,59.248974 C267.485037,58.6652958 266.929499,57.9174692 266.528776,57.005472 C266.128054,56.0934747 265.927696,55.0173341 265.927696,53.7770178 Z M268.441305,53.6675787 C268.441305,55.564533 268.987736,56.9142687 270.080615,57.7168263 C271.173494,58.5193839 272.466715,58.9206566 273.960316,58.9206566 C275.490346,58.9206566 276.947496,58.5558632 278.33181,57.8262654 C279.716123,57.0966676 281.227916,56.0387666 282.867235,54.6525308 L282.867235,45.7332421 C280.171467,46.0615611 277.903777,46.4628339 276.064097,46.9370725 C274.224418,47.4113111 272.739946,47.9767409 271.610638,48.6333789 C270.48133,49.290017 269.67079,50.0378435 269.178994,50.876881 C268.687199,51.7159185 268.441305,52.6461417 268.441305,53.6675787 Z M292.484521,47.2653899 C292.484521,45.1130763 292.803273,43.1796711 293.440785,41.4651163 C294.078298,39.7505614 294.934374,38.3005075 296.009038,37.1149111 C297.083702,35.9293146 298.304065,35.0173311 299.670164,34.378933 C301.036263,33.7405349 302.447877,33.4213406 303.905049,33.4213406 C307.037968,33.4213406 309.496909,34.4792416 311.281945,36.5950752 C313.06698,38.7109089 313.959485,41.702215 313.959485,45.5690834 L313.959485,46.5540356 C313.959485,46.8823546 313.923056,47.2106687 313.850197,47.5389877 L294.943486,47.5389877 C294.979916,49.1805828 295.234917,50.7035953 295.708498,52.1080711 C296.182079,53.5125469 296.846903,54.7163653 297.702992,55.7195622 C298.55908,56.7227592 299.588193,57.5070651 300.790359,58.0725034 C301.992526,58.6379417 303.34039,58.9206566 304.833991,58.9206566 C306.254734,58.9206566 307.538847,58.7109004 308.68637,58.2913817 C309.833893,57.8718629 310.899434,57.2973133 311.883025,56.5677155 L312.866611,58.4281806 C311.810162,59.0483387 310.653549,59.6320082 309.396738,60.1792066 C308.139927,60.7264049 306.546169,61 304.615417,61 C302.939669,61 301.364125,60.6899256 299.888739,60.0697674 C298.413352,59.4496093 297.129239,58.5467456 296.03636,57.3611491 C294.943481,56.1755527 294.078298,54.7346186 293.440785,53.0383037 C292.803273,51.3419888 292.484521,49.4177034 292.484521,47.2653899 Z M311.66445,45.6785226 C311.66445,42.2858927 310.972304,39.7414585 309.587991,38.0451436 C308.203678,36.3488287 306.327597,35.500684 303.959692,35.500684 C302.830384,35.500684 301.755736,35.7377997 300.735716,36.2120383 C299.715695,36.6862769 298.795869,37.3611447 297.97621,38.2366621 C297.156551,39.1121795 296.482619,40.1792003 295.954394,41.4377565 C295.42617,42.6963127 295.089204,44.1098873 294.943486,45.6785226 L311.66445,45.6785226 Z M319.205277,55.5827633 C320.334586,56.5312405 321.536734,57.3246662 322.81176,57.9630643 C324.086785,58.6014624 325.671436,58.9206566 327.565759,58.9206566 C329.642229,58.9206566 331.199558,58.400826 332.237793,57.3611491 C333.276028,56.3214722 333.795138,55.1085341 333.795138,53.7222982 C333.795138,52.9197406 333.603887,52.2083934 333.22138,51.5882353 C332.838872,50.9680772 332.337977,50.4391267 331.718679,50.001368 C331.099381,49.5636093 330.416341,49.1805762 329.669541,48.8522572 C328.92274,48.5239382 328.166844,48.2138637 327.401828,47.9220246 C326.418237,47.5572257 325.425554,47.1741926 324.423748,46.7729138 C323.421942,46.371635 322.520331,45.8882837 321.718886,45.3228454 C320.917442,44.7574071 320.270831,44.0825393 319.779036,43.2982216 C319.28724,42.513904 319.041346,41.5563212 319.041346,40.4254446 C319.041346,39.4769674 319.22349,38.5741037 319.587783,37.7168263 C319.952076,36.8595488 320.498507,36.1117223 321.227093,35.4733242 C321.955679,34.8349261 322.839076,34.3333352 323.877311,33.9685363 C324.915546,33.6037373 326.126802,33.4213406 327.511116,33.4213406 C328.895429,33.4213406 330.2524,33.676696 331.582069,34.1874145 C332.911739,34.698133 334.050137,35.3547611 334.997299,36.1573187 L333.685851,37.8536252 C332.811548,37.1969871 331.882615,36.6406772 330.899023,36.1846785 C329.915432,35.7286799 328.749712,35.500684 327.401828,35.500684 C326.381808,35.500684 325.507518,35.6374815 324.778932,35.9110807 C324.050346,36.1846799 323.440165,36.5403535 322.948369,36.9781122 C322.456573,37.4158709 322.092286,37.9265817 321.855496,38.5102599 C321.618705,39.0939382 321.500312,39.6776077 321.500312,40.2612859 C321.500312,41.0273636 321.673348,41.674872 322.019427,42.2038304 C322.365505,42.7327888 322.829971,43.1979004 323.41284,43.5991792 C323.995709,44.000458 324.660534,44.3561316 325.407334,44.6662107 C326.154135,44.9762897 326.910031,45.2772443 327.675047,45.5690834 L330.735092,46.7729138 C331.755113,47.1741926 332.674939,47.6666637 333.494598,48.250342 C334.314257,48.8340202 334.979082,49.5544873 335.489092,50.4117647 C335.999102,51.2690421 336.254103,52.3360629 336.254103,53.6128591 C336.254103,54.5978161 336.062853,55.5371592 335.680345,56.4309166 C335.297837,57.3246739 334.724084,58.1089798 333.959069,58.7838577 C333.194054,59.4587357 332.265121,59.996806 331.172242,60.3980848 C330.079363,60.7993636 328.822571,61 327.401828,61 C325.434646,61 323.631423,60.6443264 321.992105,59.9329685 C320.352786,59.2216107 318.950279,58.3734659 317.784542,57.3885089 L319.205277,55.5827633 Z M343.79493,36.1573187 L339.696655,36.1573187 L339.696655,34.2968536 L343.849574,34.0779754 L344.177436,26.4719562 L346.253896,26.4719562 L346.253896,34.0779754 L353.849366,34.0779754 L353.849366,36.1573187 L346.253896,36.1573187 L346.253896,53.2845417 C346.253896,54.1235792 346.317646,54.8805256 346.445149,55.5554036 C346.572651,56.2302815 346.800331,56.813951 347.128194,57.3064295 C347.456058,57.7989081 347.90231,58.1819412 348.466964,58.4555404 C349.031619,58.7291395 349.769301,58.8659371 350.680033,58.8659371 C351.190043,58.8659371 351.745582,58.7838585 352.346665,58.619699 C352.947749,58.4555395 353.485073,58.264023 353.958654,58.0451436 L354.614378,60.0150479 C353.849362,60.306887 353.084359,60.5440027 352.319343,60.7264022 C351.554328,60.9088016 350.898611,61 350.352171,61 C349.077146,61 348.020712,60.8084834 347.182838,60.4254446 C346.344964,60.0424057 345.671032,59.5043354 345.161022,58.8112175 C344.651012,58.1180996 344.295832,57.2790747 344.095471,56.2941176 C343.895109,55.3091606 343.79493,54.23302 343.79493,53.0656635 L343.79493,36.1573187 Z M360.242676,21 L362.646998,21 L362.646998,38.1819425 C364.031311,36.7957067 365.433818,35.6557272 366.854561,34.7619699 C368.275303,33.8682126 369.896383,33.4213406 371.717847,33.4213406 C374.450045,33.4213406 376.453626,34.2421259 377.728652,35.8837209 C379.003677,37.525316 379.64118,40.0606304 379.64118,43.4897401 L379.64118,60.3433653 L377.236859,60.3433653 L377.236859,43.8180575 C377.236859,41.0091059 376.772392,38.9389031 375.843445,37.6073871 C374.914498,36.2758711 373.375383,35.6101231 371.226054,35.6101231 C369.659595,35.6101231 368.238873,36.0205157 366.963848,36.8413133 C365.688822,37.6621108 364.249887,38.8932886 362.646998,40.5348837 L362.646998,60.3433653 L360.242676,60.3433653 L360.242676,21 Z M386.908789,47.2653899 C386.908789,45.1130763 387.22754,43.1796711 387.865053,41.4651163 C388.502566,39.7505614 389.358641,38.3005075 390.433306,37.1149111 C391.50797,35.9293146 392.728333,35.0173311 394.094432,34.378933 C395.46053,33.7405349 396.872145,33.4213406 398.329316,33.4213406 C401.462236,33.4213406 403.921177,34.4792416 405.706212,36.5950752 C407.491248,38.7109089 408.383752,41.702215 408.383752,45.5690834 L408.383752,46.5540356 C408.383752,46.8823546 408.347324,47.2106687 408.274465,47.5389877 L389.367754,47.5389877 C389.404183,49.1805828 389.659185,50.7035953 390.132765,52.1080711 C390.606346,53.5125469 391.271171,54.7163653 392.12726,55.7195622 C392.983348,56.7227592 394.01246,57.5070651 395.214627,58.0725034 C396.416794,58.6379417 397.764658,58.9206566 399.258259,58.9206566 C400.679001,58.9206566 401.963115,58.7109004 403.110638,58.2913817 C404.258161,57.8718629 405.323702,57.2973133 406.307293,56.5677155 L407.290879,58.4281806 C406.234429,59.0483387 405.077816,59.6320082 403.821006,60.1792066 C402.564195,60.7264049 400.970437,61 399.039684,61 C397.363936,61 395.788393,60.6899256 394.313006,60.0697674 C392.83762,59.4496093 391.553506,58.5467456 390.460627,57.3611491 C389.367749,56.1755527 388.502566,54.7346186 387.865053,53.0383037 C387.22754,51.3419888 386.908789,49.4177034 386.908789,47.2653899 Z M406.088718,45.6785226 C406.088718,42.2858927 405.396572,39.7414585 404.012258,38.0451436 C402.627945,36.3488287 400.751864,35.500684 398.38396,35.500684 C397.254652,35.500684 396.180004,35.7377997 395.159983,36.2120383 C394.139963,36.6862769 393.220137,37.3611447 392.400478,38.2366621 C391.580819,39.1121795 390.906887,40.1792003 390.378662,41.4377565 C389.850437,42.6963127 389.513471,44.1098873 389.367754,45.6785226 L406.088718,45.6785226 Z M413.629545,55.5827633 C414.758853,56.5312405 415.961002,57.3246662 417.236027,57.9630643 C418.511053,58.6014624 420.095704,58.9206566 421.990027,58.9206566 C424.066497,58.9206566 425.623826,58.400826 426.662061,57.3611491 C427.700296,56.3214722 428.219406,55.1085341 428.219406,53.7222982 C428.219406,52.9197406 428.028155,52.2083934 427.645647,51.5882353 C427.26314,50.9680772 426.762244,50.4391267 426.142946,50.001368 C425.523648,49.5636093 424.840609,49.1805762 424.093808,48.8522572 C423.347008,48.5239382 422.591111,48.2138637 421.826096,47.9220246 C420.842505,47.5572257 419.849821,47.1741926 418.848016,46.7729138 C417.84621,46.371635 416.944599,45.8882837 416.143154,45.3228454 C415.341709,44.7574071 414.695099,44.0825393 414.203304,43.2982216 C413.711508,42.513904 413.465614,41.5563212 413.465614,40.4254446 C413.465614,39.4769674 413.647758,38.5741037 414.012051,37.7168263 C414.376344,36.8595488 414.922775,36.1117223 415.651361,35.4733242 C416.379947,34.8349261 417.263344,34.3333352 418.301579,33.9685363 C419.339814,33.6037373 420.55107,33.4213406 421.935383,33.4213406 C423.319697,33.4213406 424.676668,33.676696 426.006337,34.1874145 C427.336006,34.698133 428.474405,35.3547611 429.421567,36.1573187 L428.110118,37.8536252 C427.235815,37.1969871 426.306882,36.6406772 425.323291,36.1846785 C424.3397,35.7286799 423.17398,35.500684 421.826096,35.500684 C420.806076,35.500684 419.931786,35.6374815 419.2032,35.9110807 C418.474614,36.1846799 417.864432,36.5403535 417.372637,36.9781122 C416.880841,37.4158709 416.516554,37.9265817 416.279763,38.5102599 C416.042973,39.0939382 415.924579,39.6776077 415.924579,40.2612859 C415.924579,41.0273636 416.097616,41.674872 416.443694,42.2038304 C416.789772,42.7327888 417.254239,43.1979004 417.837108,43.5991792 C418.419977,44.000458 419.084801,44.3561316 419.831602,44.6662107 C420.578403,44.9762897 421.334299,45.2772443 422.099314,45.5690834 L425.15936,46.7729138 C426.17938,47.1741926 427.099206,47.6666637 427.918866,48.250342 C428.738525,48.8340202 429.403349,49.5544873 429.91336,50.4117647 C430.42337,51.2690421 430.678371,52.3360629 430.678371,53.6128591 C430.678371,54.5978161 430.48712,55.5371592 430.104613,56.4309166 C429.722105,57.3246739 429.148352,58.1089798 428.383337,58.7838577 C427.618322,59.4587357 426.689388,59.996806 425.596509,60.3980848 C424.503631,60.7993636 423.246839,61 421.826096,61 C419.858914,61 418.055691,60.6443264 416.416372,59.9329685 C414.777054,59.2216107 413.374547,58.3734659 412.208809,57.3885089 L413.629545,55.5827633 Z M438.874922,27.7305062 C438.255624,27.7305062 437.736514,27.5298698 437.317577,27.128591 C436.89864,26.7273122 436.689175,26.2166014 436.689175,25.5964432 C436.689175,24.9033253 436.89864,24.365255 437.317577,23.9822161 C437.736514,23.5991773 438.255624,23.4076607 438.874922,23.4076607 C439.49422,23.4076607 440.01333,23.5991773 440.432267,23.9822161 C440.851204,24.365255 441.060669,24.9033253 441.060669,25.5964432 C441.060669,26.2166014 440.851204,26.7273122 440.432267,27.128591 C440.01333,27.5298698 439.49422,27.7305062 438.874922,27.7305062 Z M437.618118,34.0779754 L440.022439,34.0779754 L440.022439,60.3433653 L437.618118,60.3433653 L437.618118,34.0779754 Z M448.65614,53.7770178 C448.65614,50.8951064 450.022218,48.6881062 452.754415,47.1559508 C455.486612,45.6237953 459.766991,44.529415 465.595678,43.872777 C465.632108,42.88782 465.568357,41.8937579 465.404426,40.8905609 C465.240494,39.8873639 464.930849,38.99362 464.475483,38.2093023 C464.020117,37.4249847 463.382614,36.7865962 462.562954,36.2941176 C461.743295,35.8016391 460.695969,35.5554036 459.420943,35.5554036 C457.635908,35.5554036 456.014828,35.9019573 454.557656,36.5950752 C453.100484,37.2881932 451.934764,37.963061 451.060461,38.619699 L449.967588,36.8139535 C450.441169,36.4856345 451.014921,36.120841 451.688863,35.7195622 C452.362806,35.3182834 453.109595,34.95349 453.929254,34.625171 C454.748913,34.296852 455.650525,34.0141371 456.634116,33.7770178 C457.617707,33.5398985 458.637712,33.4213406 459.694162,33.4213406 C461.260621,33.4213406 462.572056,33.6858159 463.628506,34.2147743 C464.684956,34.7437327 465.541031,35.4641997 466.196759,36.376197 C466.852486,37.2881943 467.316953,38.355215 467.590172,39.5772914 C467.863392,40.7993677 468,42.1217439 468,43.5444596 L468,60.3433653 L465.978184,60.3433653 L465.704966,56.9507524 L465.595678,56.9507524 C464.247794,58.0086692 462.799751,58.9480123 461.251506,59.7688098 C459.703261,60.5896074 458.05486,61 456.306254,61 C455.249804,61 454.266228,60.8540826 453.355496,60.5622435 C452.444763,60.2704044 451.634223,59.8326523 450.923852,59.248974 C450.213481,58.6652958 449.657942,57.9174692 449.25722,57.005472 C448.856498,56.0934747 448.65614,55.0173341 448.65614,53.7770178 Z M451.169749,53.6675787 C451.169749,55.564533 451.71618,56.9142687 452.809059,57.7168263 C453.901938,58.5193839 455.195158,58.9206566 456.68876,58.9206566 C458.21879,58.9206566 459.67594,58.5558632 461.060253,57.8262654 C462.444567,57.0966676 463.95636,56.0387666 465.595678,54.6525308 L465.595678,45.7332421 C462.89991,46.0615611 460.632221,46.4628339 458.792541,46.9370725 C456.952861,47.4113111 455.46839,47.9767409 454.339082,48.6333789 C453.209773,49.290017 452.399234,50.0378435 451.907438,50.876881 C451.415643,51.7159185 451.169749,52.6461417 451.169749,53.6675787 Z" id="Anaesthesia" fill="#FFFFFF"></path>
            </g>
        </g>
    </g>
</svg>